<svg xmlns="http://www.w3.org/2000/svg" width="900" height="900"><path fill="#2dd4bf" d="m0 532 30-4.5c30-4.5 90-13.5 150-9.2 60 4.4 120 22 180 31.9 60 9.8 120 11.8 180-3.9 60-15.6 120-49 180-58s120 6.4 150 14l30 7.7v391H0Z"/><path fill="#24bcaa" d="m0 557 30 9.7c30 9.6 90 29 150 28.6 60-.3 120-20.3 180-16.3s120 32 180 30.5 120-32.5 180-38.7c60-6.1 120 12.5 150 21.9l30 9.3v299H0Z"/><path fill="#1ca496" d="m0 622 30 14.7c30 14.6 90 44 150 54.5s120 2.1 180-5.5c60-7.7 120-14.7 180-11.4 60 3.4 120 17 180 15.9C780 689 840 673 870 665l30-8v244H0Z"/><path fill="#158d82" d="m0 730 30 4.2c30 4.1 90 12.5 150 14.5s120-2.4 180-5.7 120-5.7 180 0 120 19.3 180 14.8 120-27.1 150-38.5l30-11.3v193H0Z"/><path fill="#0f766e" d="m0 843 30-1.7c30-1.6 90-5 150-15.6 60-10.7 120-28.7 180-29.5 60-.9 120 15.5 180 24.1 60 8.7 120 9.7 180 1 60-8.6 120-27 150-36.1l30-9.2v125H0Z"/></svg>